<?xml version="1.0" standalone="no"?>
<!DOCTYPE svg PUBLIC "-//W3C//DTD SVG 20010904//EN"
 "http://www.w3.org/TR/2001/REC-SVG-20010904/DTD/svg10.dtd">
<svg version="1.0" xmlns="http://www.w3.org/2000/svg"
 width="1736.000000pt" height="1736.000000pt" viewBox="0 0 1736.000000 1736.000000"
 preserveAspectRatio="xMidYMid meet">
<metadata>
Created by potrace 1.11, written by Peter Selinger 2001-2013
</metadata>
<g transform="translate(0.000000,1736.000000) scale(0.100000,-0.100000)"
fill="#000000" stroke="none">
<path d="M10045 14354 c-22 -2 -110 -9 -195 -15 -1475 -104 -2971 -639 -4055
-1450 -397 -296 -779 -670 -1051 -1028 -84 -111 -219 -308 -230 -335 -5 -14
10 -16 132 -16 l139 0 90 107 c189 225 499 526 750 729 1419 1145 3332 1637
5322 1368 1754 -236 3272 -1061 4178 -2269 507 -676 796 -1396 900 -2245 23
-180 31 -657 16 -860 -73 -956 -420 -1813 -1050 -2585 -133 -164 -495 -528
-666 -669 -660 -549 -1432 -953 -2308 -1210 -1099 -323 -2311 -389 -3492 -190
-1028 173 -1978 562 -2689 1103 -157 119 -332 271 -451 390 l-100 101 895 0
c550 0 927 4 977 10 414 52 756 297 939 672 96 199 114 307 114 702 0 320 -10
429 -50 561 -49 159 -153 299 -290 390 -69 46 -326 174 -351 176 -8 0 27 12
76 25 356 97 549 325 606 716 19 132 16 525 -4 631 -95 480 -443 835 -932 950
-90 21 -97 21 -1927 24 l-1837 3 -4 -1627 c-3 -1811 3 -1669 -71 -1828 -102
-221 -271 -367 -513 -442 l-88 -28 -630 0 c-584 0 -635 1 -700 19 -293 78
-507 290 -591 586 -18 62 -19 145 -22 1693 l-3 1627 -440 0 -439 0 3 -1707 3
-1708 28 -114 c87 -355 235 -612 493 -862 233 -225 523 -376 863 -451 104 -23
111 -23 820 -23 706 0 716 0 818 23 470 104 847 357 1104 741 159 238 250 498
277 791 7 73 11 517 11 1211 0 603 3 1124 6 1158 l7 61 1204 0 c1064 0 1208
-2 1241 -15 49 -21 81 -52 103 -100 17 -36 19 -70 19 -365 0 -295 -2 -329 -19
-365 -22 -48 -54 -79 -103 -100 -33 -13 -151 -15 -968 -15 l-930 0 0 -460 0
-459 938 -3 937 -3 42 -23 c24 -12 55 -41 70 -64 l28 -42 3 -433 c2 -409 2
-436 -17 -477 -22 -50 -69 -89 -126 -105 -28 -7 -325 -11 -957 -11 l-918 0 0
-472 0 -473 112 -135 c137 -167 411 -441 578 -580 1038 -863 2430 -1388 4075
-1536 242 -21 981 -30 1238 -15 1101 67 2128 337 3062 803 1651 825 2807 2184
3185 3743 89 367 121 624 127 1043 7 437 -16 713 -92 1087 -129 638 -393 1267
-762 1815 -353 526 -843 1033 -1383 1432 -979 722 -2202 1196 -3520 1363 -392
49 -529 57 -1035 60 -264 1 -498 1 -520 -1z"/>
<path d="M9790 10133 c-87 -9 -208 -36 -288 -64 -432 -151 -740 -538 -792
-994 -6 -58 -10 -754 -10 -1952 l0 -1863 695 0 695 0 0 995 0 995 1535 0 1535
0 0 575 0 575 -1535 0 -1535 0 0 195 c0 243 11 280 102 326 36 18 84 19 1503
19 l1465 0 0 600 0 600 -1667 -2 c-918 0 -1684 -3 -1703 -5z"/>
</g>
</svg>
